<svg xmlns="http://www.w3.org/2000/svg" xmlns:xlink="http://www.w3.org/1999/xlink" viewBox="0 0 288 110"><defs><style>.cls-1{fill:none;}.cls-2{isolation:isolate;}.cls-3{clip-path:url(#clip-path);}.cls-4{fill:#cd1d68;}.cls-5{opacity:0.2;}.cls-6{fill:#fff;}.cls-7{opacity:0.8;mix-blend-mode:multiply;}.cls-8{fill:url(#radial-gradient);}.cls-9{opacity:0.1;}.cls-10{opacity:0.25;}</style><clipPath id="clip-path"><rect class="cls-1" width="288" height="110" rx="1.49" ry="1.49"/></clipPath><radialGradient id="radial-gradient" cx="1276.33" cy="-260.62" r="49.68" gradientTransform="translate(-888.08 292.92) scale(0.9 0.91)" gradientUnits="userSpaceOnUse"><stop offset="0" stop-color="#231f20" stop-opacity="0"/><stop offset="1" stop-opacity="0.1"/></radialGradient></defs><title>box_3_mob</title><g class="cls-2"><g id="Capa_2" data-name="Capa 2"><g id="Capa_1-2" data-name="Capa 1"><g class="cls-3"><path class="cls-4" d="M197.92,0H1.49A1.49,1.49,0,0,0,0,1.49v107A1.49,1.49,0,0,0,1.49,110h285a1.49,1.49,0,0,0,1.49-1.49V1.49A1.49,1.49,0,0,0,286.51,0Z"/><g class="cls-5"><path class="cls-6" d="M222.26,0c-.82,0-.95.4-.29.88L286.8,48.6A3.32,3.32,0,0,1,288,51v57.54h0V1.49A1.49,1.49,0,0,0,286.51,0Z"/></g><g class="cls-7"><g class="cls-5"><path class="cls-8" d="M286.8,48.6A3.32,3.32,0,0,1,288,51v57.54h0V1.49A1.49,1.49,0,0,0,286.51,0H222.26c-.82,0-.95.4-.29.88Z"/></g></g><g class="cls-9"><path class="cls-6" d="M286.51,0A1.49,1.49,0,0,1,288,1.49v107a1.49,1.49,0,0,1-1.49,1.49H175.81a5.48,5.48,0,0,1-2.7-.86L20.44.86c-.67-.47-.54-.86.27-.86Z"/></g></g></g></g></g></svg>