<svg width="299" height="41" viewBox="0 0 299 41" fill="none" xmlns="http://www.w3.org/2000/svg">
<path d="M199.333 35.4716H99.6665V40.0858H199.333V35.4716Z" fill="#225380"/>
<path d="M121.958 7.97583L119.008 21.129C119.008 21.1989 119.008 21.1989 119.078 21.1989H121.677C121.747 21.1989 121.747 21.129 121.747 21.129L122.941 15.8817C122.941 15.8117 123.011 15.8117 123.011 15.8117H127.366C127.436 15.8117 127.436 15.8117 127.436 15.7418L128.068 13.6429C128.068 13.5729 128.068 13.5729 127.998 13.5729H123.363C123.292 13.5729 123.292 13.5029 123.292 13.5029L124.065 10.4246C124.065 10.3546 124.135 10.3546 124.135 10.3546H128.63C128.701 10.3546 128.701 10.2846 128.701 10.2846L129.684 8.18572C129.684 8.11576 129.684 8.11576 129.614 8.11576H121.958V7.97583Z" fill="#F5F5F5"/>
<path d="M179.693 7.90588H177.445C177.375 7.90588 177.375 7.90588 177.375 7.97585C177.375 7.97585 177.375 8.04581 177.375 8.11577L174.565 21.1989C174.565 21.2689 174.565 21.2689 174.636 21.2689H176.883C176.953 21.2689 176.953 21.1989 176.953 21.1989L179.763 8.04581C179.763 7.90588 179.763 7.90588 179.693 7.90588Z" fill="#F5F5F5"/>
<path d="M141.975 13.0832C141.413 12.3835 140.5 11.9638 139.306 11.9638C137.761 11.9638 136.918 12.6634 136.286 13.2231L137.48 8.11577C137.48 8.11577 137.48 8.11577 137.48 8.04581C137.48 7.97585 137.48 7.90588 137.41 7.90588C137.34 7.90588 137.34 7.90588 137.269 7.90588H135.373C135.233 7.90588 135.162 7.90588 135.092 8.11577L133.125 16.9312C133.125 17.0711 133.055 17.281 133.055 17.4909C132.985 18.2605 133.055 19.24 133.617 20.0795C134.179 20.9191 135.162 21.6187 136.988 21.6187C140.009 21.6187 141.484 19.6597 142.116 18.1206C142.186 17.9107 142.256 17.7008 142.327 17.4909C142.397 17.351 142.397 17.211 142.397 17.0711C142.397 17.0011 142.467 16.8612 142.467 16.7912C142.537 16.5114 142.537 16.2315 142.607 15.9517C142.818 14.7623 142.537 13.7828 141.975 13.0832ZM140.219 16.7213C139.938 18.0506 138.955 19.3099 137.34 19.3099C135.935 19.3099 135.373 18.4004 135.443 17.211C135.443 17.0711 135.513 16.9312 135.513 16.7213C135.794 15.392 136.918 14.1326 138.534 14.1326C139.236 14.1326 139.657 14.3425 139.938 14.6923C140.219 15.0422 140.29 15.5319 140.29 16.0916C140.29 16.3015 140.29 16.5114 140.219 16.7213Z" fill="#F5F5F5"/>
<path d="M132.212 7.83594C131.37 7.83594 130.667 8.53557 130.527 9.23521C130.527 9.30517 130.527 9.37513 130.457 9.4451C130.457 9.79491 130.527 10.0748 130.737 10.2847C130.948 10.4945 131.229 10.6345 131.651 10.6345C132.493 10.6345 133.196 10.0048 133.407 9.23521C133.407 9.16524 133.407 9.09528 133.407 9.02532C133.407 8.6755 133.336 8.39565 133.126 8.18575C132.915 7.97586 132.634 7.83594 132.212 7.83594Z" fill="#F5F5F5"/>
<path d="M132.423 12.1738H130.246C130.176 12.1738 130.105 12.2438 130.105 12.3138L128.209 21.1292C128.209 21.1991 128.209 21.1991 128.279 21.1991H130.527C130.597 21.1991 130.597 21.1292 130.667 21.1292L132.564 12.2438C132.493 12.2438 132.493 12.1738 132.423 12.1738Z" fill="#F5F5F5"/>
<path d="M151.879 12.9435C151.317 12.3138 150.404 11.964 149.35 11.964C146.611 11.964 144.223 13.853 143.591 16.7215C143.521 17.0014 143.521 17.2812 143.45 17.4911C143.38 18.6805 143.731 19.66 144.363 20.3596C145.066 21.0592 146.049 21.4091 147.313 21.4091C148.718 21.4091 150.053 20.9193 151.387 19.66C151.457 19.59 151.457 19.52 151.387 19.4501L150.193 18.3307C150.123 18.2607 149.982 18.3307 149.982 18.3307C149.28 18.9603 148.578 19.4501 147.524 19.4501C146.4 19.4501 145.628 18.7504 145.628 17.5611C145.628 17.4911 145.698 17.4911 145.698 17.4911H152.089C152.3 17.4911 152.37 17.4211 152.37 17.2812L152.441 16.7915C152.511 16.3717 152.581 16.0219 152.581 15.6721C152.722 14.5526 152.511 13.6431 151.879 12.9435ZM150.334 15.6021C150.334 15.6021 150.334 15.6721 150.193 15.742H146.049C145.979 15.742 146.049 15.6021 146.049 15.6021C146.541 14.4827 147.454 13.783 148.648 13.783C149.28 13.783 149.701 13.923 149.982 14.2028C150.263 14.4827 150.404 14.9025 150.334 15.3922C150.404 15.4622 150.334 15.5321 150.334 15.6021Z" fill="#F5F5F5"/>
<path d="M165.786 12.0337H162.976C162.906 12.0337 162.906 12.0337 162.906 12.0337L163.468 9.65494C163.468 9.51501 163.468 9.51501 163.327 9.51501H161.22C161.08 9.51501 161.01 9.58498 161.01 9.65494C161.01 9.65494 161.01 9.65494 161.01 9.7249L160.518 12.1037L160.097 14.2026L159.183 18.1905C159.113 18.5403 159.043 18.8901 159.043 19.2399C158.973 19.9396 159.113 20.4993 159.464 20.8491C159.886 21.1989 160.518 21.4088 161.501 21.4088C161.993 21.4088 162.766 21.3388 163.327 21.129C163.398 21.129 163.398 21.059 163.398 20.989L163.819 19.03C163.819 18.9601 163.749 19.03 163.749 19.03L163.608 19.1C163.327 19.3099 162.766 19.3799 162.414 19.3799C161.993 19.3799 161.782 19.3099 161.642 19.17C161.501 19.03 161.431 18.8202 161.501 18.4703C161.501 18.3304 161.501 18.1905 161.571 18.0506L162.414 14.2725C162.414 14.2725 162.414 14.2725 162.485 14.2725H164.802C164.873 14.2725 164.873 14.2026 164.873 14.2026L165.786 12.1736C165.856 12.0337 165.856 12.0337 165.786 12.0337Z" fill="#F5F5F5"/>
<path d="M159.254 12.0339H159.113H158.973H158.692H157.357C156.304 12.1039 155.461 12.5936 155.039 13.0834C154.197 13.9929 153.916 15.3922 153.635 16.6515L152.651 21.1292C152.651 21.1992 152.651 21.1992 152.792 21.2691H154.899C155.039 21.2691 155.11 21.1992 155.11 21.1292L156.093 16.5116C156.233 16.0918 156.304 15.4621 156.585 15.0424C156.866 14.6226 157.287 14.2728 158.06 14.2728H158.973C159.043 14.2728 159.043 14.2028 159.113 14.1328L159.254 12.0339Z" fill="#F5F5F5"/>
<path d="M173.512 12.9435C172.95 12.3138 172.037 11.964 170.983 11.964C168.244 11.964 165.856 13.853 165.224 16.7215C165.153 17.0014 165.153 17.2812 165.083 17.4911C165.013 18.6805 165.364 19.66 165.996 20.3596C166.699 21.0592 167.682 21.4091 168.946 21.4091C170.351 21.4091 171.685 20.9193 173.02 19.66C173.09 19.59 173.09 19.52 173.02 19.4501L171.826 18.3307C171.756 18.2607 171.615 18.3307 171.615 18.3307C170.913 18.9603 170.21 19.4501 169.157 19.4501C168.033 19.4501 167.26 18.7504 167.26 17.5611C167.26 17.4911 167.331 17.4911 167.331 17.4911H173.722C173.933 17.4911 174.003 17.4211 174.003 17.2812L174.073 16.7915C174.144 16.3717 174.214 16.0219 174.214 15.6721C174.284 14.5526 174.073 13.6431 173.512 12.9435ZM171.966 15.6021C171.966 15.6021 171.966 15.6721 171.826 15.742H167.682C167.612 15.742 167.682 15.6021 167.682 15.6021C168.174 14.4827 169.087 13.783 170.281 13.783C170.913 13.783 171.334 13.923 171.615 14.2028C171.896 14.4827 172.037 14.9025 171.966 15.3922C171.966 15.4622 171.966 15.5321 171.966 15.6021Z" fill="#F5F5F5"/>
<path d="M81.405 5.80712C81.124 5.52727 80.7729 5.31738 80.3514 5.38734C79.7895 5.38734 79.2276 5.73716 78.5955 6.43679C78.1038 7.06646 77.6824 7.69613 77.4015 8.32581C77.261 8.67562 77.0503 9.16537 76.8396 9.865L76.067 11.5441C75.8562 11.8939 75.7158 12.5236 75.5753 13.4331L75.0836 15.2522V15.532V15.7419L74.5217 16.8614L74.0301 17.491L72.7658 18.7504L72.1337 19.1002C71.9932 19.1002 71.8527 19.1701 71.642 19.3101C71.5015 19.45 71.3611 19.52 71.2206 19.52C70.8694 19.52 70.5885 19.1002 70.5182 18.1207L70.448 17.7709L70.0968 17.2811C69.6754 16.8614 69.3242 16.7214 69.0432 16.7214C68.7623 16.7914 68.4111 17.0013 68.2004 17.3511L67.1468 19.1701C66.8659 19.45 66.5849 19.5899 66.2337 19.5899C66.6552 18.3306 67.0064 17.491 67.3575 16.8614C67.6385 16.5115 67.9194 16.1617 68.1302 15.9518H69.1135L69.6051 16.5815C69.8158 16.8614 70.0266 16.9313 70.2373 16.8614C70.448 16.7914 70.5885 16.7214 70.6587 16.5815C70.7289 16.4416 70.7992 16.3016 70.7992 16.0918C70.7992 15.7419 70.5182 15.3921 70.2373 14.9723C69.8158 14.5526 69.3944 14.3427 68.9028 14.2027C68.3409 14.1328 67.779 14.2027 67.2873 14.3427C67.0064 14.4126 66.7254 14.5526 66.5147 14.6925C66.3742 14.7624 66.304 14.8324 66.2337 14.9723L65.9528 15.2522C65.7421 15.3222 65.6016 15.532 65.3909 15.8119L64.0564 19.1002C63.9862 19.45 63.9862 19.7299 64.1266 19.9397L64.4076 20.6394C64.4778 20.8493 64.548 20.9892 64.6885 21.1291C64.9695 21.409 65.2504 21.6189 65.6016 21.6888C66.3742 21.8288 67.1468 21.5489 67.9194 20.8493L69.2539 19.7998C69.3242 19.7998 69.3944 19.8698 69.5349 20.0797L69.6051 20.3595L69.8861 20.6394L70.7992 21.339C71.0099 21.4789 71.2908 21.5489 71.5015 21.5489C71.9932 21.6189 72.4146 21.4789 72.9063 21.2691L73.4682 20.9892L73.9598 20.5694C74.2408 20.4295 74.3813 20.3595 74.5217 20.3595C74.5217 20.3595 74.592 20.3595 74.6622 20.4295V20.5694L74.9432 22.9482L75.3646 24.6973C75.5753 25.187 75.8562 25.5368 76.2777 25.8167C76.6991 26.1665 77.1205 26.3064 77.6122 26.3064C77.8931 26.0266 77.8931 25.6068 77.6122 24.9771C77.3312 24.4874 77.1908 24.0676 77.1908 23.6478L77.1205 19.7998C77.0503 19.0302 77.1205 18.4705 77.261 17.9808C77.4015 17.561 77.6122 17.0712 78.0336 16.5815L79.0169 15.1822L79.8598 13.5031L82.0371 8.32581C82.2478 7.7661 82.2478 7.20639 82.1776 6.78661C81.8264 6.43679 81.6157 6.08697 81.405 5.80712ZM78.5253 9.865C78.5955 9.51519 78.736 9.23533 78.8062 9.0954C79.0169 8.67562 79.4383 8.18588 79.93 7.69613H80.0002V7.97599L79.8598 8.46573L78.5955 11.6841L77.8931 13.0134C77.8229 13.2932 77.6824 13.4331 77.6122 13.5031H77.5419V13.4331V13.2232L77.9634 11.3342C78.0336 11.0544 78.1741 10.7745 78.2443 10.5646L78.5253 9.865Z" fill="#F5F5F5"/>
<path d="M63.9864 21.3389L63.4947 20.7792C63.2138 20.3594 63.0031 19.7997 62.8626 19.1L62.6519 17.211L62.1602 15.6718C61.9495 15.322 61.6685 15.1121 61.2471 14.9722H60.1233L59.4912 15.322C59.2805 15.4619 59.0698 15.6718 58.9293 15.8118C58.7888 15.9517 58.6483 16.1616 58.5781 16.5114L58.2269 17.211C58.0864 17.1411 57.946 16.9312 57.946 16.7213V16.4414V16.1616L57.3841 14.6224C57.1734 14.2026 56.8222 13.7828 56.471 13.433C56.0496 13.1531 55.5579 12.8733 55.1365 12.8033C54.9258 12.7334 54.6448 12.7334 54.2234 12.8033L53.4508 12.8733C53.0996 12.9433 52.7484 13.1531 52.5377 13.433L51.9056 14.4125C51.6246 14.8323 51.4139 15.1821 51.2032 15.322C51.0627 15.4619 50.9222 15.6718 50.7115 15.9517L50.0092 17.4909L49.658 18.1206C49.5175 18.4004 49.4473 18.8902 49.4473 19.5898C49.4473 20.1495 49.5175 20.5693 49.7282 20.9191C50.0092 21.4088 50.3603 21.6887 50.9222 21.8986C51.6246 22.1784 52.1163 22.2484 52.5377 22.1784C52.6782 22.1784 52.8889 22.0385 53.1698 21.8286L53.7317 21.5488C54.0127 21.3389 54.2234 21.129 54.2936 20.7092C54.5043 20.1495 54.5043 19.3799 54.2936 18.4004C54.1532 17.7707 54.0127 17.281 54.0127 17.0011C54.0127 16.4414 54.0829 16.0216 54.3639 15.6718L54.5746 15.392C54.6448 15.322 54.6448 15.1821 54.5746 15.1121L54.4341 14.8323C54.4341 14.6923 54.4341 14.6923 54.5746 14.6923C54.9258 14.6923 55.2067 14.7623 55.4174 15.1121C55.6281 15.392 55.6984 15.7418 55.7686 16.2315L56.1198 20.1495C56.1198 20.4293 56.19 20.7092 56.3305 20.9191C56.5412 21.2689 56.8222 21.5488 57.2436 21.6887C57.665 21.8286 58.0864 21.7587 58.4376 21.6187C58.7888 21.4088 59.0698 21.129 59.2805 20.6392L59.5614 19.3799C59.6317 18.8202 59.7721 18.4004 59.9829 18.1206L60.1936 17.8407H60.2638L60.4043 17.9806C60.5448 18.1206 60.6852 18.2605 60.7555 18.4704C60.8257 18.6803 61.0364 19.1 61.1769 19.7997C61.3174 20.3594 61.5281 20.7792 61.7388 21.059C62.0197 21.4788 62.4412 21.8286 62.9328 21.9685C63.4245 22.1784 63.9161 22.2484 64.4078 22.1085V22.0385L63.9864 21.3389ZM52.1865 16.7912C52.5377 16.7912 52.6782 17.1411 52.6079 17.9107C52.5377 18.5403 52.3972 19.17 52.1865 19.7997C52.046 20.0795 51.9758 20.2195 51.8353 20.2894C51.6246 20.4293 51.5544 20.4993 51.3437 20.4293C51.2032 20.4293 51.133 20.2894 51.133 20.0096C51.133 19.7997 51.133 19.4499 51.2032 19.1L51.4841 18.1905C51.6949 17.7008 51.9056 17.211 52.1865 16.7912Z" fill="#F5F5F5"/>
<path d="M27.744 6.01693C27.3928 5.73707 26.9011 5.38725 26.3392 4.96747C25.9881 4.75758 25.4262 4.47773 24.7238 4.26784C24.3024 4.12791 24.0214 4.05795 23.8107 3.98798L22.8976 3.84806C22.6167 3.77809 22.2655 3.70813 21.9845 3.70813H21.0715L18.9643 4.05795C18.6132 4.05795 18.3322 4.12791 18.1917 4.3378C18.0513 4.47773 17.9108 4.75758 17.8405 4.96747C17.7703 5.24733 17.7001 5.45722 17.7703 5.66711C17.8405 5.877 17.981 6.01693 18.1917 6.15685C18.4727 6.29678 18.8239 6.29678 19.175 6.29678L22.125 5.94696L24.8643 6.29678C25.2155 6.36674 25.4262 6.43671 25.6369 6.50667C25.9881 6.6466 26.4095 6.99641 26.8309 7.48616C27.2523 7.9759 27.463 8.39568 27.3928 8.88543C27.3226 9.37517 27.1119 9.72499 26.6202 10.1448L25.4964 11.0543C24.9345 11.4041 24.5131 11.544 24.2321 11.544L24.4428 10.9843L24.5833 10.4246L24.6536 9.23525L24.8643 8.67554L24.9345 8.11583C24.9345 7.83598 24.9345 7.55612 24.7238 7.27627C24.5131 6.85649 24.2321 6.50667 23.8809 6.43671H23.2488C23.0381 6.50667 22.8274 6.6466 22.6869 6.78652C22.406 7.06638 22.3357 7.41619 22.2655 7.9759L21.7036 11.4041C21.5631 11.8239 21.4226 12.1037 21.1417 12.2437C20.931 12.3836 20.65 12.2437 20.3691 11.7539L20.0179 11.2642C19.8774 11.1243 19.7369 11.0543 19.5262 10.9843C19.175 10.9144 18.8941 10.9843 18.6834 11.3342C18.4727 11.684 18.4727 12.0338 18.6834 12.3836C18.8239 12.7334 19.0346 13.0133 19.3858 13.2931C19.5262 13.3631 19.7369 13.503 20.0881 13.6429L20.7905 13.9928C21.0715 14.1327 21.1417 14.4825 21.0715 14.9023C21.0715 15.1122 21.0012 15.532 20.7905 16.0917L19.7369 23.0181L19.5262 23.6477C19.456 23.8576 19.456 24.0675 19.5965 24.2774C19.8072 24.5573 20.2286 24.7671 20.65 24.7671C21.1417 24.7671 21.4929 24.6272 21.7036 24.2774C21.9143 23.9975 21.9845 23.6477 22.0548 23.158L22.1953 21.4089C22.2655 20.6393 22.3357 20.0096 22.4762 19.4499L22.8976 17.5609C22.9679 17.0012 23.0381 16.3715 23.0381 15.8818C23.1083 15.2521 23.1083 14.9023 23.2488 14.6224C23.3893 14.2726 23.7405 13.9928 24.2321 13.8528L25.9178 13.2931C26.269 13.1532 26.7607 12.8034 27.3928 12.3836C27.9547 11.9638 28.3761 11.544 28.6571 11.2642C29.2892 10.4946 29.4297 9.5151 29.1487 8.46565C29.1487 7.55612 28.5868 6.71656 27.744 6.01693Z" fill="#F5F5F5"/>
<path d="M48.9557 13.853C48.9557 13.6431 48.9557 13.4332 48.8152 13.2233C48.6747 13.0134 48.5342 12.8735 48.3235 12.8035C48.1128 12.7335 47.8319 12.6636 47.6212 12.6636C47.4104 12.6636 47.1997 12.7335 46.9188 12.8735L46.4271 13.0134C46.2867 13.0834 46.1462 13.1533 46.1462 13.1533L45.9355 13.3632L45.6545 13.4332L45.1629 14.2028L45.0224 14.3427C44.9521 14.4127 44.9521 14.4826 44.9521 14.4826L44.8117 14.8324C44.601 15.1123 44.4605 15.3222 44.4605 15.4621C44.4605 15.672 44.4605 15.8819 44.4605 16.1617C44.5307 16.6515 44.6712 17.1412 45.0224 17.7009L45.9355 19.0303C46.2867 19.59 46.4974 20.0797 46.4271 20.4995C46.3569 20.7793 46.0759 21.0592 45.5843 21.1991L44.4605 21.2691L43.7581 21.0592C43.4772 20.9892 43.2665 21.0592 43.126 21.1991C43.126 21.339 43.126 21.5489 43.126 21.7588L43.7581 22.8083C43.8986 23.0182 44.2498 23.1581 44.7414 23.2281C45.6545 23.298 46.4271 23.2281 47.1295 23.0182C47.5509 22.8782 47.9021 22.6684 48.1831 22.3885C48.464 22.0387 48.6747 21.7588 48.745 21.2691C48.8854 20.6394 48.6045 19.8698 47.9723 19.1002L47.3402 18.1207C47.0593 17.7709 46.9188 17.4211 46.9188 17.0013C46.8486 16.4416 46.9188 16.0218 47.27 15.602C47.4104 15.3222 47.7616 15.0423 48.2533 14.6925C48.6747 14.4826 48.9557 14.1328 48.9557 13.853Z" fill="#F5F5F5"/>
<path d="M44.3904 14.9724C44.4606 14.9025 44.4606 14.6926 44.3904 14.4827C44.3201 14.1329 44.2499 13.9929 44.1094 13.923C43.407 13.6431 42.8451 13.5732 42.3535 13.6431C42.0023 13.6431 41.5809 13.923 41.1594 14.2728L40.1059 15.2523L39.263 16.3017C38.9821 16.7915 38.5607 17.0713 38.2797 17.2113L38.069 16.6515C38.069 16.5816 37.9988 16.3017 37.9988 16.0219C37.9988 15.6721 37.7881 15.3222 37.5071 15.1123C37.2262 14.8325 36.9452 14.7625 36.594 14.6926C36.2428 14.6226 35.8917 14.6926 35.6809 14.8325L35.2595 15.2523L34.9083 15.742L34.1357 16.5816C33.8548 16.8614 33.2929 17.5611 32.5203 18.4706L31.3965 19.8699C30.975 20.3596 30.6239 20.5695 30.2727 20.4296C29.9215 20.3596 29.7108 20.0798 29.5703 19.59C29.5001 19.1003 29.5703 18.8204 29.8513 18.5406L32.3096 17.3512L33.4333 16.5816L33.9952 16.0918C34.0655 15.6021 33.925 15.1123 33.6441 14.6226C33.3631 14.2028 33.0119 13.783 32.5905 13.5032C32.0988 13.1534 31.6774 13.0134 31.1155 12.9435C30.5536 12.9435 30.062 13.0134 29.5703 13.2933C28.6572 13.853 27.9548 14.7625 27.6037 15.8819L27.3929 16.5116L27.3227 16.6515L27.1822 16.7215H26.4799L26.0584 16.7915C25.9882 16.8614 25.918 16.9314 25.918 17.0713C25.918 17.2812 25.918 17.4911 26.0584 17.701L26.5501 18.2607L26.9715 18.6105C27.112 18.7505 27.1822 18.9603 27.2525 19.3102L27.6037 20.0098C28.0953 21.0592 28.587 21.7589 29.2191 22.0387C29.9917 22.4585 30.8346 22.5285 31.5369 22.3186C32.0988 22.1787 32.6607 21.7589 33.2226 21.1992L34.6274 19.52C35.1893 18.8204 35.7512 18.3307 36.2428 18.0508L36.4536 19.3102L36.5238 20.2197L36.4536 21.0592C36.4536 21.4091 36.5238 21.6889 36.594 21.8988C36.8047 22.3186 37.1559 22.5285 37.5071 22.6684C37.9285 22.7384 38.2797 22.5285 38.6309 22.1087L39.263 20.6395L40.1761 19.3801L40.9487 17.771C41.2297 17.1413 41.5809 16.6515 41.9321 16.3017C42.213 15.9519 42.5642 15.6721 43.0559 15.4622L44.0392 15.0424L44.3904 14.9724ZM32.0286 14.9724C32.0988 15.1823 32.0286 15.3222 32.0286 15.4622C32.0286 15.742 31.8179 15.9519 31.4667 16.1618L30.062 17.0713C29.781 17.2113 29.5703 17.2812 29.4298 17.2812H29.2894C29.2191 17.2812 29.2191 17.2812 29.2191 17.1413L29.2894 16.8614C29.2894 16.7215 29.3596 16.5816 29.5001 16.4417L30.1322 15.5321C30.4132 15.1123 30.6239 14.7625 30.9048 14.6226C31.256 14.3428 31.6072 14.2728 31.8881 14.5526C31.8881 14.6226 31.9584 14.8325 32.0286 14.9724Z" fill="#F5F5F5"/>
<path d="M2.10712 35.4716H99.6666V40.0858H0V37.7787C0 36.4713 0.913084 35.4716 2.10712 35.4716Z" fill="#00B0EA"/>
<path d="M226.726 16.7913C226.936 19.5898 228.411 20.8492 231.08 20.8492C233.539 20.8492 235.154 19.4499 235.575 17.281C235.575 17.281 235.646 16.8612 235.646 16.5114C235.646 16.3715 235.646 16.2316 235.646 16.1616C235.646 14.9023 235.224 13.7829 234.522 13.0133C233.82 12.2437 232.836 11.7539 231.642 11.7539C230.097 11.7539 229.395 12.4535 228.973 13.0133V7.90592C228.973 7.83595 228.903 7.76599 228.833 7.76599H226.866C226.796 7.76599 226.726 7.83595 226.726 7.90592V16.7913ZM231.08 13.9228C232.555 13.9228 233.398 15.1122 233.398 16.3715C233.398 17.7708 232.555 18.8202 231.08 18.8202C229.605 18.8202 228.833 17.8407 228.833 16.3715C228.833 15.0422 229.605 13.9228 231.08 13.9228Z" fill="#F5F5F5"/>
<path d="M236.629 20.2894C236.629 20.3594 236.699 20.4294 236.769 20.4294H238.666C238.736 20.4294 238.806 20.3594 238.806 20.2894V7.97586C238.806 7.9059 238.736 7.83594 238.666 7.83594H236.769C236.699 7.83594 236.629 7.9059 236.629 7.97586V20.2894Z" fill="#F5F5F5"/>
<path d="M256.717 11.9639H254.751C254.681 11.9639 254.61 12.0338 254.54 12.1038L252.573 17.6309C252.573 17.7009 252.503 17.7009 252.503 17.6309L250.537 12.1038C250.537 12.0338 250.396 11.9639 250.326 11.9639H248.289C248.219 11.9639 248.148 12.0338 248.148 12.1038V12.1738L251.309 20.2895C251.309 20.3595 251.45 20.4294 251.52 20.4294H253.557C253.627 20.4294 253.697 20.3595 253.767 20.2895L256.858 12.1038C256.858 12.0338 256.858 11.9639 256.717 11.9639Z" fill="#F5F5F5"/>
<path d="M244.355 11.7539C243.091 11.7539 241.967 12.1737 241.124 12.9433C240.281 13.7129 239.93 14.8323 239.93 16.1616C239.93 17.4909 240.281 18.6103 241.124 19.3799C241.967 20.1495 243.091 20.5693 244.355 20.5693C245.689 20.5693 246.743 20.0795 247.726 18.9601C247.797 18.8902 247.797 18.8202 247.726 18.7502L246.392 17.7008C246.322 17.6308 246.251 17.6308 246.181 17.7008C245.689 18.3305 245.128 18.7502 244.144 18.7502C243.02 18.7502 242.248 18.0506 242.107 16.8612H247.726H248.078C248.148 16.8612 248.218 16.7913 248.218 16.7213V16.4414V16.3015C248.218 14.8323 247.797 13.7129 247.094 12.9433C246.392 12.1737 245.549 11.7539 244.355 11.7539ZM245.97 15.322H242.107C242.248 14.2026 243.02 13.503 244.074 13.503C245.338 13.433 245.97 14.1327 245.97 15.322C246.041 15.322 246.041 15.322 245.97 15.322ZM259.737 11.9638H257.84C257.77 11.9638 257.7 12.0337 257.7 12.1037V20.2894C257.7 20.3594 257.77 20.4294 257.84 20.4294H259.737C259.807 20.4294 259.877 20.3594 259.877 20.2894V12.1037C259.877 12.0337 259.807 11.9638 259.737 11.9638ZM276.453 10.4246H277.928C277.999 10.4246 278.139 10.3546 278.139 10.3546L280.527 7.97586C280.597 7.9059 280.527 7.9059 280.457 7.9059H278.209C278.139 7.9059 278.069 7.9059 278.069 7.9059C278.069 7.9059 277.999 7.97586 277.999 8.04583L276.383 10.4246C276.383 10.3546 276.383 10.4246 276.453 10.4246ZM221.949 11.7539C220.615 11.7539 219.491 12.1737 218.578 13.0832C218.578 13.1532 218.508 13.2231 218.578 13.2231L219.561 14.2026C219.631 14.2726 219.702 14.2726 219.772 14.2026C220.334 13.7129 220.966 13.433 221.739 13.433C222.862 13.433 223.565 13.9228 223.565 14.9722V15.1121H223.073C222.019 15.1121 220.685 15.1821 219.631 15.5319C218.578 15.9517 217.875 16.6513 217.875 18.0506C217.875 19.7297 219.28 20.5693 220.825 20.5693C221.949 20.5693 222.862 20.1495 223.494 19.24V19.6598C223.565 20.0096 223.705 20.3594 224.197 20.3594H225.321C225.391 20.3594 225.461 20.2894 225.461 20.2195V19.8697V15.5319C225.461 14.9722 225.461 13.9927 225.04 13.2231C224.688 12.4535 223.705 11.7539 221.949 11.7539ZM223.424 17.0711C223.424 18.1905 222.792 18.8902 221.387 18.9601C221.036 18.9601 220.825 18.8902 220.615 18.6803C220.334 18.4704 220.193 18.2605 220.193 17.9107C220.193 17.351 220.544 17.0711 221.177 16.8612C221.809 16.7213 222.581 16.6513 223.143 16.6513H223.565V17.0711H223.424ZM270.483 7.83594C269.711 7.83594 269.149 8.39565 269.149 9.09528C269.149 9.72495 269.711 10.3546 270.483 10.3546C271.256 10.3546 271.818 9.79492 271.818 9.09528C271.818 8.39565 271.256 7.83594 270.483 7.83594ZM289.798 12.8033C289.307 12.1737 288.534 11.7539 287.41 11.7539C286.076 11.7539 285.303 12.3836 284.882 13.1532V12.1037C284.882 12.0337 284.812 11.9638 284.741 11.9638H282.915C282.845 11.9638 282.775 12.0337 282.775 12.1037V20.2894C282.775 20.3594 282.845 20.4294 282.915 20.4294H284.812C284.882 20.4294 284.952 20.3594 284.952 20.2894V15.8118C284.952 14.6924 285.444 13.7828 286.848 13.7129C287.551 13.7129 287.902 14.0627 288.113 14.5524C288.323 15.0422 288.323 15.6718 288.323 16.0916V19.8697V20.2894C288.323 20.3594 288.394 20.4294 288.464 20.4294H290.36C290.431 20.4294 290.501 20.3594 290.501 20.2894V15.1121C290.431 14.2726 290.29 13.433 289.798 12.8033ZM277.085 11.7539C275.821 11.7539 274.838 12.1737 273.995 12.9433C273.152 13.7129 272.801 14.8323 272.801 16.1616C272.801 17.4909 273.152 18.6103 273.995 19.3799C274.838 20.1495 275.821 20.5693 277.085 20.5693C278.35 20.5693 279.403 20.1495 280.176 19.3799C281.019 18.6103 281.37 17.4909 281.37 16.1616C281.37 14.8323 281.019 13.7129 280.176 12.9433C279.403 12.2436 278.42 11.7539 277.085 11.7539ZM277.085 18.6103C275.61 18.6103 274.978 17.4209 274.978 16.1616C274.978 14.9023 275.61 13.7129 277.085 13.7129C278.631 13.7129 279.193 14.9023 279.193 16.1616C279.263 17.4909 278.631 18.6103 277.085 18.6103ZM258.754 7.83594C257.981 7.83594 257.419 8.39565 257.419 9.09528C257.419 9.72495 257.981 10.3546 258.754 10.3546C259.526 10.3546 260.088 9.79492 260.088 9.09528C260.088 8.39565 259.526 7.83594 258.754 7.83594ZM271.466 11.9638H269.57C269.5 11.9638 269.43 12.0337 269.43 12.1037V20.2894C269.43 20.3594 269.5 20.4294 269.57 20.4294H271.466C271.537 20.4294 271.607 20.3594 271.607 20.2894V12.1037C271.607 12.0337 271.537 11.9638 271.466 11.9638ZM265.848 15.462C265.286 15.322 264.724 15.2521 264.302 15.1121C263.881 14.9722 263.67 14.7623 263.67 14.4125C263.67 14.1327 263.811 13.9228 264.021 13.7828C264.232 13.6429 264.513 13.5729 264.794 13.5729C265.496 13.5729 265.988 13.8528 266.339 14.3425C266.409 14.4125 266.48 14.4125 266.55 14.3425L267.814 13.2231C267.884 13.1532 267.884 13.0832 267.814 13.0132C267.112 12.1737 265.988 11.8239 264.864 11.8239C264.021 11.8239 263.178 12.0337 262.546 12.4535C261.914 12.8733 261.493 13.5729 261.493 14.5524C261.493 16.1616 262.687 16.6513 263.811 16.9312C264.373 17.0711 264.934 17.1411 265.356 17.351C265.777 17.4909 266.058 17.7008 266.058 18.1206C266.058 18.4004 265.848 18.6803 265.637 18.8202C265.356 18.9601 265.005 19.0301 264.724 19.0301C263.881 19.0301 263.389 18.6103 262.827 18.1206C262.757 18.0506 262.687 18.0506 262.617 18.1206L261.423 19.17L261.352 19.24C261.282 19.31 261.282 19.3799 261.352 19.4499L261.563 19.6598C262.406 20.4294 263.389 20.7092 264.583 20.7092C265.426 20.7092 266.339 20.4993 267.042 20.0795C267.744 19.6598 268.236 18.9601 268.236 17.9806C268.165 16.2316 266.971 15.7418 265.848 15.462Z" fill="#F5F5F5"/>
<path d="M213.24 9.79493C214.434 9.8649 215.066 10.2147 215.909 11.2642C215.979 11.4041 216.05 11.4041 216.19 11.3341L217.525 10.3546C217.665 10.2847 217.665 10.1447 217.595 10.0748C216.682 8.60555 215.417 8.04584 214.434 7.83595C214.223 7.76599 213.802 7.76599 213.381 7.76599C211.625 7.76599 210.29 8.39566 209.237 9.58504C208.183 10.7045 207.691 12.3836 207.691 14.3426C207.691 16.2316 208.183 17.9107 209.237 19.0301C210.29 20.1495 211.695 20.7792 213.381 20.7792C214.996 20.7792 216.401 20.2195 217.384 18.8202C217.454 18.6803 217.454 18.6103 217.384 18.5404L215.909 17.351C215.839 17.281 215.769 17.351 215.698 17.351C214.996 18.3305 214.223 18.6103 213.381 18.6103C211.133 18.6103 209.869 16.7213 209.869 14.1327C209.799 11.8938 210.922 9.79493 213.24 9.79493Z" fill="#F5F5F5"/>
<path d="M296.893 35.4716H199.333V40.0858H299V37.7787C299 36.4713 298.017 35.4716 296.893 35.4716Z" fill="#DD2534"/>
<path d="M99.8775 0H99.4561V28.6151H99.8775V0Z" fill="#F5F5F5"/>
<path d="M199.544 0H199.122V28.6151H199.544V0Z" fill="#F5F5F5"/>
</svg>
