<svg xmlns="http://www.w3.org/2000/svg" width="132" height="46" fill="none" viewBox="0 0 132 46">
    <g clip-path="url(#a)">
        <path fill="#A6A6A6" d="M121.539 0H8.345c-.822 0-1.528.12-2.233.24-.705.12-1.41.36-2.116.72-.705.361-1.293.721-1.763 1.322-.47.48-.94 1.2-1.293 1.801a7.749 7.749 0 0 0-.705 2.162C.118 6.965 0 7.686 0 8.527V36.748c0 .721.118 1.562.235 2.283.118.72.353 1.44.705 2.161.353.72.823 1.321 1.293 1.802.47.48 1.176.96 1.763 1.32.706.361 1.411.601 2.116.721.705.12 1.41.24 2.233.24h115.427c.705 0 1.528-.12 2.233-.24a7.353 7.353 0 0 0 2.116-.72 6.859 6.859 0 0 0 1.763-1.321c.47-.48.941-1.201 1.293-1.802.353-.72.588-1.44.705-2.161.118-.721.236-1.441.236-2.282v-1.081-24.859-2.282c0-.72-.118-1.562-.236-2.282a7.718 7.718 0 0 0-.705-2.162 7.73 7.73 0 0 0-3.056-3.122c-.705-.36-1.41-.6-2.116-.72C125.3.12 124.595 0 123.772 0h-2.233z"/>
        <path fill="#000" d="M9.286 44.075h-.94c-.706 0-1.41-.12-2.116-.24-.588-.12-1.293-.361-1.763-.721-.588-.24-1.058-.72-1.528-1.201-.47-.48-.823-.961-1.176-1.561-.235-.6-.47-1.201-.587-1.802-.118-.72-.236-1.441-.236-2.162v-26.9-.961c0-.721.118-1.442.236-2.162.117-.6.352-1.321.587-1.922.353-.6.705-1.08 1.176-1.56.47-.481.94-.841 1.528-1.202.587-.24 1.175-.48 1.763-.6C6.935.96 7.64.84 8.346.84h115.426c.705 0 1.411.12 2.116.24.588.12 1.293.36 1.881.6a6.088 6.088 0 0 1 2.703 2.762c.353.6.47 1.201.588 1.802.117.72.235 1.44.235 2.162v27.981c0 .721-.118 1.442-.235 2.042-.235 1.321-.823 2.522-1.763 3.483-.471.48-.941.84-1.528 1.2-.588.24-1.176.481-1.881.601-.705.12-1.411.12-2.116.24l-114.486.12z"/>
        <path fill="#fff" d="M27.387 22.818c0-1.922 1.058-3.723 2.587-4.684-1.058-1.441-2.704-2.402-4.467-2.402-1.88-.24-3.644 1.08-4.584 1.08-.94 0-2.469-1.08-3.997-1.08-2.115.12-3.879 1.201-4.936 3.123-2.116 3.722-.588 9.247 1.527 12.25 1.058 1.44 2.234 3.122 3.762 3.122s2.116-.961 3.996-.961c1.881 0 2.351.96 3.997.96 1.645 0 2.703-1.56 3.644-3.002.705-1.08 1.293-2.162 1.645-3.483-1.998-.72-3.174-2.642-3.174-4.923zM24.332 13.81c.94-1.08 1.293-2.521 1.175-3.963-1.41.12-2.586.841-3.526 1.922-.94 1.08-1.41 2.402-1.293 3.843 1.41-.12 2.703-.72 3.644-1.802zM46.664 30.624h-5.171L40.2 34.347h-2.234l4.937-13.931h2.35l4.938 13.93h-2.234l-1.293-3.722zm-4.701-1.801h4.114l-1.998-6.125-2.116 6.125zM60.887 29.303c0 3.122-1.645 5.164-4.114 5.164-1.293.12-2.468-.6-3.174-1.801v5.044h-2.115V24.139h1.998v1.681c.588-1.2 1.88-1.921 3.174-1.801 2.468 0 4.231 2.042 4.231 5.284zm-2.116 0c0-2.042-1.058-3.483-2.703-3.483-1.646 0-2.586 1.441-2.586 3.483s1.058 3.483 2.586 3.483c1.528 0 2.703-1.441 2.703-3.483zM71.819 29.303c0 3.122-1.646 5.164-4.114 5.164-1.293.12-2.469-.6-3.174-1.802v5.044h-2.116V24.14h1.998v1.681c.706-1.201 1.881-1.801 3.174-1.801 2.586 0 4.231 2.041 4.231 5.284zm-2.116 0c0-2.042-1.058-3.483-2.704-3.483-1.645 0-2.586 1.441-2.586 3.483 0 2.041 1.058 3.482 2.586 3.482 1.528 0 2.704-1.44 2.704-3.482zM79.106 30.504c.118 1.44 1.528 2.281 3.291 2.281s2.939-.96 2.939-2.161-.705-1.802-2.468-2.162l-1.764-.48c-2.468-.6-3.643-1.802-3.643-3.723 0-2.402 2.115-4.084 4.936-4.084 2.821 0 4.937 1.682 4.937 4.084h-2.116c-.117-1.441-1.293-2.282-2.938-2.282-1.646 0-2.704.84-2.704 2.042 0 .96.706 1.56 2.469 2.041l1.528.36c2.82.721 3.996 1.802 3.996 3.843 0 2.643-1.998 4.204-5.29 4.204-3.055 0-5.053-1.561-5.171-4.203l1.998.24zM91.918 21.737v2.402h1.88v1.681h-1.88v5.644c0 .841.353 1.322 1.176 1.322h.705v1.68c-.353.12-.823.12-1.175.12-1.999 0-2.822-.72-2.822-2.761V25.94h-1.41V24.26h1.41v-2.402l2.116-.12zM94.974 29.303c0-3.243 1.881-5.284 4.702-5.284 2.821 0 4.702 2.041 4.702 5.284 0 3.242-1.881 5.284-4.702 5.284-2.821 0-4.702-2.162-4.702-5.284zm7.406 0c0-2.162-.941-3.483-2.704-3.483-1.763 0-2.703 1.321-2.703 3.483 0 2.161.94 3.482 2.703 3.482s2.704-1.32 2.704-3.482zM106.141 24.139h1.998v1.801c.235-1.2 1.293-1.921 2.468-1.921.235 0 .471 0 .706.12v1.921c-.353-.12-.588-.12-.941-.12-1.175 0-2.115.84-2.115 2.042v6.365h-1.999V24.139h-.117zM120.716 31.344c-.235 1.802-1.998 3.123-4.349 3.123-2.939 0-4.702-2.042-4.702-5.164 0-3.123 1.763-5.284 4.584-5.284 2.821 0 4.467 1.921 4.467 5.044v.72h-7.053v.12c-.117 1.441.941 2.762 2.351 2.882h.353a2.207 2.207 0 0 0 2.351-1.44h1.998zm-6.935-3.002h4.937c.117-1.321-.823-2.522-2.116-2.522h-.353c-1.41-.12-2.468 1.08-2.468 2.522zM41.727 9.848c1.646-.12 3.057 1.08 3.057 2.762v.6a2.976 2.976 0 0 1-2.469 3.363H39.377V9.848h2.35zm-1.41 5.764h1.175c1.176.12 2.116-.84 2.234-1.921v-.48c.117-1.202-.588-2.283-1.763-2.403h-1.528l-.118 4.804zM50.426 15.132c-.235.96-1.176 1.56-2.116 1.44-1.293 0-2.35-.96-2.35-2.281v-.36c-.118-1.321.704-2.402 1.997-2.642h.353c1.41 0 2.233.96 2.233 2.522v.36h-3.526c-.117.72.47 1.441 1.175 1.441h.118c.47 0 .94-.24 1.175-.6l.94.12zm-3.409-1.562h2.468c.118-.6-.47-1.2-1.057-1.32h-.118c-.705 0-1.293.6-1.293 1.32zM53.6 11.409c1.175 0 1.88.48 1.997 1.44h-.94c-.117-.36-.47-.6-.94-.6s-.94.24-.94.72c0 .481.235.481.822.601l.823.24c.94.24 1.41.601 1.41 1.322 0 .96-.822 1.56-2.115 1.56-1.293 0-1.998-.6-1.998-1.44h.94c.117.48.588.72 1.058.6.588 0 1.058-.24 1.058-.72s-.235-.48-.706-.6l-.822-.241c-.94-.24-1.41-.72-1.41-1.441 0-.72.704-1.441 1.762-1.441zM60.182 13.21c-.118-.48-.588-.84-1.176-.84-.823 0-1.293.6-1.293 1.681 0 1.08.47 1.801 1.293 1.801.588.12 1.058-.24 1.176-.84h.94c-.118 1.08-1.058 1.801-2.116 1.681-1.293 0-2.35-.96-2.35-2.282v-.36c-.236-1.201.587-2.402 1.88-2.642h.47c1.058-.12 2.116.72 2.116 1.801h-.94zM62.18 15.132c0-.961.705-1.441 1.88-1.562l1.411-.12v-.48c0-.48-.353-.84-1.058-.84-.705 0-.94.24-1.058.6h-1.058c.118-.841.94-1.441 1.999-1.441 1.057 0 1.998.6 1.998 1.68v3.484h-.94v-.72h-.118c-.353.48-.94.84-1.528.84-.823.12-1.528-.48-1.646-1.321.118 0 .118-.12.118-.12zm3.173-.48v-.481l-1.175.12c-.705 0-.94.24-.94.72s.352.721.94.721c.588.12 1.175-.36 1.175-1.08zM67.822 11.529h.94v.72h.118c.235-.6.705-.96 1.293-.84h.47v.96h-.588c-.587 0-1.175.36-1.293 1.081v3.123h-.94v-5.044zM71.583 17.053h.94c.118.36.47.6 1.176.6.705 0 1.293-.36 1.293-1.08v-.961h-.118c-.352.6-.94.84-1.528.84-1.293 0-2.115-.96-2.115-2.521 0-1.562.822-2.522 2.115-2.522.588 0 1.293.36 1.528.84h.118v-.72h.94v5.164c0 1.2-.94 1.921-2.35 1.921-1.411 0-1.881-.72-1.999-1.56zm3.526-3.122c0-.961-.47-1.682-1.41-1.682s-1.293.6-1.293 1.682c0 1.08.47 1.681 1.293 1.681s1.293-.6 1.41-1.681zM77.343 15.132c0-.961.705-1.441 1.88-1.562l1.293-.12v-.48c0-.48-.352-.84-1.057-.84-.706 0-.94.24-1.058.6h-.94c.117-.841.94-1.441 1.998-1.441 1.057 0 1.998.6 1.998 1.68v3.484h-.94v-.72h-.118c-.353.48-.94.84-1.528.84-.823.12-1.528-.48-1.646-1.321v-.12h.118zm3.173-.48v-.481l-1.175.12c-.705 0-.94.24-.94.72s.352.721.94.721c.47.12 1.058-.36 1.175-1.08zM82.985 9.488h.94v7.085h-.94V9.488zM85.336 14.05c-.118-1.32.823-2.521 2.115-2.641a2.385 2.385 0 0 1 2.586 2.161v.48c.118 1.322-.823 2.523-2.115 2.643a2.385 2.385 0 0 1-2.586-2.162v-.48zm3.761 0c0-1.08-.47-1.68-1.293-1.68s-1.293.6-1.293 1.68c0 1.082.47 1.682 1.293 1.682s1.293-.6 1.293-1.681zM98.265 15.132c-.235.96-1.175 1.56-2.115 1.44-1.293 0-2.351-.96-2.351-2.281v-.36c-.118-1.321.705-2.402 1.998-2.642h.353c1.41 0 2.233.96 2.233 2.522v.36h-3.526c-.118.72.47 1.441 1.175 1.441h.118c.47 0 .94-.24 1.175-.6l.94.12zm-3.408-1.562h2.468c.117-.6-.47-1.2-1.058-1.32h-.117c-.706 0-1.293.6-1.293 1.32zM99.676 11.529h.94v.84h.118c.235-.6.822-.96 1.528-.96.822-.12 1.645.6 1.763 1.44v3.604h-.941V13.45c0-.84-.352-1.2-1.057-1.2-.588 0-1.176.48-1.176 1.08v3.123h-.94l-.235-4.924zM112.253 15.132c-.235.96-1.175 1.56-2.116 1.44-1.293 0-2.351-.96-2.351-2.281v-.36c-.117-1.321.706-2.402 1.999-2.642h.352c1.411 0 2.234.96 2.234 2.522v.36h-3.527c-.117.72.47 1.32 1.176 1.441h.117c.47 0 .941-.24 1.176-.6l.94.12zm-3.409-1.562h2.469c.117-.6-.47-1.2-1.058-1.32h-.118c-.705 0-1.293.6-1.293 1.32zM113.663 9.488h.941v7.085h-.941V9.488z"/>
    </g>
    <defs>
        <clipPath id="a">
            <path fill="#fff" d="M0 0h132v45.035H0z"/>
        </clipPath>
    </defs>
</svg>
