<svg xmlns="http://www.w3.org/2000/svg" width="132" height="41" fill="none" viewBox="0 0 132 41">
    <g clip-path="url(#a)">
        <path fill="#000" d="M127.111 40.295H4.889C2.15 40.295 0 37.978 0 35.258V5.037C0 2.217 2.249 0 4.889 0H127.11C129.849 0 132 2.317 132 5.037v30.22c0 2.822-2.151 5.038-4.889 5.038z"/>
        <path fill="#A6A6A6" d="M127.111.806c2.249 0 4.107 1.914 4.107 4.23v30.222c0 2.317-1.858 4.23-4.107 4.23H4.889c-2.249 0-4.107-1.913-4.107-4.23V5.037C.782 2.72 2.64.806 4.89.806H127.11zm0-.806H4.889C2.249 0 0 2.317 0 5.037v30.22c0 2.822 2.249 5.038 4.889 5.038H127.11c2.738 0 4.889-2.317 4.889-5.037V5.037C132 2.317 129.849 0 127.111 0z"/>
        <path fill="#fff" d="M66.587 21.96c-2.347 0-4.205 1.814-4.205 4.332 0 2.418 1.858 4.332 4.205 4.332 2.346 0 4.204-1.813 4.204-4.332 0-2.619-1.858-4.332-4.204-4.332zm0 6.85c-1.272 0-2.347-1.107-2.347-2.619 0-1.51 1.075-2.619 2.347-2.619 1.27 0 2.346 1.008 2.346 2.62 0 1.51-1.075 2.619-2.347 2.619zm-9.094-6.85c-2.346 0-4.204 1.814-4.204 4.332 0 2.418 1.858 4.332 4.204 4.332 2.347 0 4.205-1.813 4.205-4.332 0-2.619-1.858-4.332-4.205-4.332zm0 6.85c-1.27 0-2.346-1.107-2.346-2.619 0-1.51 1.075-2.619 2.346-2.619 1.271 0 2.347 1.008 2.347 2.62 0 1.51-1.076 2.619-2.347 2.619zM46.64 23.27v1.813h4.204c-.098 1.008-.489 1.814-.977 2.317-.587.605-1.565 1.31-3.227 1.31-2.64 0-4.596-2.116-4.596-4.835 0-2.72 2.054-4.836 4.596-4.836 1.369 0 2.444.604 3.227 1.31l1.27-1.31c-1.075-1.007-2.444-1.813-4.4-1.813-3.52 0-6.55 3.022-6.55 6.649 0 3.626 3.03 6.648 6.55 6.648 1.956 0 3.325-.604 4.498-1.914C52.41 27.4 52.8 25.688 52.8 24.38c0-.404 0-.807-.098-1.109H46.64zm44.391 1.41c-.391-1.007-1.369-2.72-3.52-2.72S83.6 23.674 83.6 26.293c0 2.418 1.76 4.332 4.107 4.332 1.857 0 3.03-1.209 3.422-1.914l-1.37-1.008c-.488.706-1.075 1.21-2.052 1.21-.978 0-1.565-.404-2.054-1.31l5.573-2.418-.195-.504zm-5.671 1.41c0-1.611 1.271-2.518 2.151-2.518.684 0 1.369.403 1.564.907L85.36 26.09zm-4.596 4.13h1.858V17.63h-1.858V30.22zm-2.933-7.353c-.489-.504-1.271-1.007-2.249-1.007-2.053 0-4.009 1.914-4.009 4.331 0 2.418 1.858 4.231 4.01 4.231.977 0 1.76-.503 2.15-1.007h.098v.604c0 1.612-.88 2.519-2.249 2.519-1.075 0-1.858-.806-2.053-1.511l-1.565.705c.49 1.108 1.662 2.518 3.716 2.518 2.151 0 3.911-1.31 3.911-4.432v-7.656h-1.76v.705zm-2.151 5.944c-1.271 0-2.347-1.108-2.347-2.62 0-1.51 1.076-2.619 2.347-2.619s2.249 1.108 2.249 2.62c0 1.51-.978 2.619-2.25 2.619zm23.858-11.182h-4.4V30.22h1.857v-4.735h2.543c2.053 0 4.009-1.51 4.009-3.928s-1.956-3.93-4.01-3.93zm.097 6.044h-2.64v-4.332h2.64c1.369 0 2.152 1.21 2.152 2.116-.098 1.108-.88 2.216-2.152 2.216zm11.245-1.813c-1.369 0-2.738.604-3.227 1.914l1.662.705c.392-.705.978-.907 1.663-.907.977 0 1.857.605 1.955 1.612v.1c-.293-.2-1.075-.503-1.858-.503-1.76 0-3.52 1.008-3.52 2.82 0 1.713 1.467 2.821 3.032 2.821 1.271 0 1.857-.604 2.346-1.209h.098v1.008h1.76v-4.835c-.196-2.217-1.858-3.526-3.911-3.526zm-.196 6.95c-.586 0-1.466-.302-1.466-1.107 0-1.008 1.075-1.31 1.955-1.31.782 0 1.174.201 1.662.403-.195 1.209-1.173 2.015-2.151 2.015zm10.267-6.648l-2.053 5.44h-.098l-2.151-5.44h-1.956l3.227 7.656-1.858 4.23h1.858l4.987-11.886h-1.956zm-16.427 8.059h1.858V17.629h-1.858V30.22z"/>
        <path fill="url(#b)" d="M10.169 7.555c-.293.302-.391.806-.391 1.41v22.263c0 .605.195 1.108.489 1.41l.097.101L22.49 20.248v-.201L10.169 7.555z"/>
        <path fill="url(#c)" d="M26.4 24.479l-4.009-4.13V20.046l4.009-4.131.098.1 4.79 2.821c1.37.806 1.37 2.116 0 2.922l-4.888 2.72z"/>
        <path fill="url(#d)" d="M26.498 24.378l-4.107-4.23L10.17 32.738c.489.504 1.173.504 2.053.101l14.276-8.462z"/>
        <path fill="url(#e)" d="M26.498 15.916l-14.276-8.36c-.88-.504-1.564-.404-2.053.1L22.39 20.147l4.107-4.23z"/>
        <path fill="#000" d="M26.4 24.277l-14.178 8.26c-.782.505-1.466.404-1.955 0l-.098.102.098.1c.489.403 1.173.504 1.955 0L26.4 24.277z" opacity=".2"/>
        <path fill="#000" d="M10.169 32.538c-.293-.302-.391-.806-.391-1.41v.1c0 .605.195 1.108.489 1.41v-.1h-.098zM31.289 21.457l-4.889 2.82.098.101 4.79-2.82c.685-.403.979-.907.979-1.41 0 .503-.391.906-.978 1.309z" opacity=".12"/>
        <path fill="#fff" d="M12.222 7.656L31.29 18.838c.586.403.978.805.978 1.31 0-.505-.294-1.008-.978-1.411L12.222 7.555c-1.369-.806-2.444-.201-2.444 1.41v.101c0-1.51 1.075-2.216 2.444-1.41z" opacity=".25"/>
        <path fill="#fff" stroke="#fff" stroke-miterlimit="10" stroke-width=".289" d="M40.382 13.096V7.052h1.76c.88 0 1.662.302 2.151.806.587.604.782 1.31.782 2.216 0 .906-.293 1.612-.782 2.216-.489.504-1.27.806-2.15.806h-1.76zm.782-.705h1.076c.684 0 1.173-.202 1.564-.605.392-.403.587-1.007.587-1.712 0-.705-.195-1.31-.587-1.713-.39-.403-.977-.604-1.564-.604h-1.076v4.634zM46.151 13.096V7.052h.782v6.044h-.782zM49.965 13.197c-.392 0-.88-.101-1.272-.403-.39-.303-.684-.706-.782-1.21l.685-.301c.097.302.293.604.489.806.293.201.586.302.88.302.293 0 .586-.101.88-.303.195-.201.39-.402.39-.705 0-.302-.097-.604-.39-.805-.196-.202-.587-.403-1.076-.504-.489-.202-.88-.403-1.173-.605-.294-.302-.391-.604-.391-1.007 0-.403.195-.806.488-1.108.196-.302.685-.403 1.174-.403.489 0 .88.1 1.173.403.293.302.489.504.587.806l-.685.302c0-.201-.098-.403-.293-.604-.196-.202-.489-.202-.782-.202-.294 0-.49.1-.782.202-.098.201-.196.403-.196.705 0 .201.098.403.293.604.196.202.49.302.88.403.294.1.49.202.685.302.195.101.39.202.586.403.196.101.392.303.49.605.097.201.195.503.195.806 0 .302-.098.604-.196.806a1.197 1.197 0 0 1-.489.503c-.293 0-.489.1-.684.1-.196.102-.489.102-.684.102zM53.778 13.096h-.782V7.052h1.955c.489 0 .88.201 1.271.503.391.303.587.806.587 1.31s-.196.907-.587 1.31c-.39.302-.782.503-1.27.503h-1.174v2.418zm0-3.224h1.27c.294 0 .587-.1.783-.302.196-.201.293-.504.293-.705 0-.201-.195-.504-.39-.705-.196-.202-.49-.302-.783-.302h-1.173v2.014zM62.578 12.29c-.587.604-1.271.907-2.151.907-.88 0-1.565-.303-2.151-.907-.587-.604-.88-1.31-.88-2.216 0-.907.293-1.612.88-2.216.586-.605 1.27-.907 2.15-.907.88 0 1.565.302 2.152.907.586.604.88 1.31.88 2.216 0 .906-.294 1.612-.88 2.216zm-3.716-.504c.391.403.978.706 1.565.706.586 0 1.173-.202 1.564-.706a2.468 2.468 0 0 0 .685-1.712c0-.705-.196-1.31-.685-1.713-.39-.403-.978-.705-1.564-.705-.587 0-1.174.202-1.565.705a2.468 2.468 0 0 0-.684 1.713c0 .705.195 1.31.684 1.712zM64.533 13.096V7.052h.88l2.836 4.734V7.052h.782v6.044h-.782L65.218 8.16v4.936h-.685zM70.4 13.096V7.052h.782v6.044H70.4zM72.453 13.096V7.052h2.151c.49 0 .88.201 1.174.503.293.303.489.706.489 1.109 0 .302-.098.503-.196.805a1.01 1.01 0 0 1-.587.504c.294.1.49.302.685.504.195.201.293.503.293.906 0 .504-.196.907-.489 1.21-.39.302-.782.503-1.27.503h-2.25zm.782-3.425h1.37c.293 0 .488-.1.684-.302.195-.202.293-.403.293-.605 0-.201-.195-.503-.293-.705-.196-.201-.391-.302-.685-.302h-1.369V9.67zm0 2.72H74.8c.293 0 .489-.1.684-.302a.928.928 0 0 0 .294-.706c0-.201-.098-.503-.294-.705-.195-.201-.39-.302-.684-.302h-1.467v2.015h-.098zM77.44 13.096V7.052h.782v5.339h2.543v.705H77.44zM85.165 7.757h-2.64V9.67h2.444v.705h-2.444v1.914h2.64v.806h-3.423V7.052h3.422v.705zM91.716 7.757h-2.64V9.67h2.444v.705h-2.444v1.914h2.64v.806h-3.423V7.052h3.422v.705zM92.889 13.096V7.052h.978l2.835 4.734V7.052h.782v6.044h-.782l-3.03-4.936v4.936h-.783z"/>
    </g>
    <defs>
        <linearGradient id="b" x1="21.315" x2="4.417" y1="8.774" y2="25.176" gradientUnits="userSpaceOnUse">
            <stop stop-color="#00A0FF"/>
            <stop offset=".007" stop-color="#00A1FF"/>
            <stop offset=".26" stop-color="#00BEFF"/>
            <stop offset=".512" stop-color="#00D2FF"/>
            <stop offset=".76" stop-color="#00DFFF"/>
            <stop offset="1" stop-color="#00E3FF"/>
        </linearGradient>
        <linearGradient id="c" x1="33.082" x2="9.423" y1="20.148" y2="20.148" gradientUnits="userSpaceOnUse">
            <stop stop-color="#FFE000"/>
            <stop offset=".409" stop-color="#FFBD00"/>
            <stop offset=".775" stop-color="#FFA500"/>
            <stop offset="1" stop-color="#FF9C00"/>
        </linearGradient>
        <linearGradient id="d" x1="24.275" x2="1.359" y1="22.46" y2="44.703" gradientUnits="userSpaceOnUse">
            <stop stop-color="#FF3A44"/>
            <stop offset="1" stop-color="#C31162"/>
        </linearGradient>
        <linearGradient id="e" x1="7.135" x2="17.368" y1=".178" y2="10.11" gradientUnits="userSpaceOnUse">
            <stop stop-color="#32A071"/>
            <stop offset=".069" stop-color="#2DA771"/>
            <stop offset=".476" stop-color="#15CF74"/>
            <stop offset=".801" stop-color="#06E775"/>
            <stop offset="1" stop-color="#00F076"/>
        </linearGradient>
        <clipPath id="a">
            <path fill="#fff" d="M0 0h132v40.295H0z"/>
        </clipPath>
    </defs>
</svg>
